<svg id="Layer_3" data-name="Layer 3" xmlns="http://www.w3.org/2000/svg" viewBox="0 0 212 32"><defs><style>.cls-1{fill:#fff;}</style></defs><title>Albertsons_W</title><path class="cls-1" d="M54,24.63v0a5.41,5.41,0,0,0-.38-.86,5.9,5.9,0,0,0-.51-.76C46.79,15.54,40.31,7.66,34,0L28,7.17l-.23.29c4.66,5.47,9.25,10.9,13.76,16.42l.17.24.21.35a6.26,6.26,0,0,1-.31,6.5l-.65,1H52.18A6.94,6.94,0,0,0,54,24.63Z" transform="translate(0 0)"/><path class="cls-1" d="M23.75,18.94c.59,2.23,2.51,4,3.44,6v0c.93-2,2.85-3.74,3.44-6,1.16-3.43-1.75-6.17-3.44-8.84v0C25.5,12.77,22.6,15.51,23.75,18.94Z" transform="translate(0 0)"/><path class="cls-1" d="M27.2,26.39c-.22-.51-.7-1.4-.7-1.4a7.42,7.42,0,0,0-7.22-4c-1.6,0-2.07.07-2.36.08s-.5,0-.77,0v0A5.58,5.58,0,0,0,16,22.21a5.62,5.62,0,0,0,1.91,4.72c1.47,1.49,3,1.58,5.22,1.71s2.78.7,3.23,1.2a6.18,6.18,0,0,1,.85,1.75h0a6.18,6.18,0,0,1,.85-1.75c.45-.5,1-1.07,3.23-1.2s3.76-.22,5.22-1.71a5.62,5.62,0,0,0,1.91-4.72,5.58,5.58,0,0,0-.15-1.07v0c-.27,0-.49,0-.77,0s-.76,0-2.36-.08a7.42,7.42,0,0,0-7.22,4S27.42,25.88,27.2,26.39Z" transform="translate(0 0)"/><path class="cls-1" d="M32.87,0h-12a.1.1,0,0,0-.08,0C14.25,7.46,7.68,15.45,1.27,23a4.49,4.49,0,0,0-.51.76,5.15,5.15,0,0,0-.38.86v0a6.94,6.94,0,0,0,1.84,7.29H13.43l-.65-1a6.26,6.26,0,0,1-.31-6.5l.21-.34v0l.17-.23C19.32,16,25.94,8.25,32.69.33L33,0h-.09Z" transform="translate(0 0)"/><path class="cls-1" d="M207.35,14.78a2.33,2.33,0,1,1,2.35,2.3,2.32,2.32,0,0,1-2.35-2.3m4.37,0a2,2,0,1,0-2,2.06,2,2,0,0,0,2-2.06m-.87,1.3h-.38l-.75-1.19h-.58v1.19h-.32l0-2.59h1.13a1.2,1.2,0,0,1,.64.12.64.64,0,0,1,.3.55c0,.51-.36.7-.82.72Zm-1.23-1.43c.37,0,.93.05.93-.47s-.36-.44-.68-.44h-.74v.91Z" transform="translate(0 0)"/><path class="cls-1" d="M141.37,30.43c.06-.46-.38-.82-.7-1.08a9.08,9.08,0,0,1-1.09-.94,1.79,1.79,0,0,1-.39-1.19c0-.52,0-1-.06-1.56q-.06-1.64,0-3.29c0-1.07.08-2.17.15-3.24s1-1,1.81-1a1.48,1.48,0,0,0,1.16-.54,2.42,2.42,0,0,0,.24-1.12,2.11,2.11,0,0,0-.17-1.31,1.2,1.2,0,0,0-1-.39c-.71,0-1.59.18-1.73-.76s.29-1.74.09-2.6c-.09-.39-.37-.8-.82-.79a2.17,2.17,0,0,0-1.14.6c-.84.66-1.65,1.35-2.47,2a5.75,5.75,0,0,1-2.6,1.52c-1,.19-2.07.07-3.09.22a3.62,3.62,0,0,0-2.32,1.3c-.18.22-.5.7-.83.71s-.24-.31-.24-.49a2.2,2.2,0,0,0-.36-1.65,1.79,1.79,0,0,0-1.22-.35c-.51,0-1,0-1.54,0s-1.11.09-1.67.15A3.7,3.7,0,0,0,120,15a1,1,0,0,0-.59,1c.1.45.55.72.84,1a1.76,1.76,0,0,1,.41,1.21c0,.5,0,1,.06,1.51a64.6,64.6,0,0,1,0,6.74c0,.55-.08,1.09-.12,1.63a2.09,2.09,0,0,1-.53,1.28,1.57,1.57,0,0,0-.5,1.07,1.13,1.13,0,0,0,.64.94,3.11,3.11,0,0,0,1.33.26l1.46,0a24.81,24.81,0,0,0,2.86-.06c.62-.05,1.4-.19,1.66-.85s-.23-1.24-.58-1.82a2,2,0,0,1-.26-1.09c0-.53,0-1.07,0-1.6V22.9c0-.56,0-1.11,0-1.67a2.6,2.6,0,0,1,.28-1.32c.75-1.32,2.41-1.48,3.79-1.46l1,0a3,3,0,0,1,1,.15.84.84,0,0,1,.5.89c0,.52,0,1,0,1.55q0,1.71-.09,3.42c0,1.07-.1,2.14-.1,3.21a4.79,4.79,0,0,0,.64,2.7s.74,1.31,3.37,1.33S141.23,31.62,141.37,30.43Z" transform="translate(0 0)"/><path class="cls-1" d="M59.66,32c-2.75-.08-2.14-2.35-2.14-2.35L59.32,25c1.39-3.37,2.55-6.81,3.86-10.22L64,12.58A4.22,4.22,0,0,0,64.3,11s-.13-.75-.37-.93-.82-1.83,2.47-1.72a37.43,37.43,0,0,1,5,.32s1.17.17,1.66,2.31l4.64,17.36s.32,1.19,1.17,1.17C80,29.47,80,27.28,80,27.28s.07-.94.08-1.25c.1-3.38.2-7.3,0-10.83l-.08-1.37c-.09-1.5-2.67-2.61-.42-3.61A43.53,43.53,0,0,1,84,8.38s2.12-.78,2,1.06c-.26,5.6-.46,11.43-.33,16.8,0,.21.06,1.91.06,1.91,0,.77.83,1.3,1.13,1.94,0,0,.57.9-1.22,1.56-1.39.51-9.1.29-12.21.27-2.85,0-2.62-1.61-2.62-1.61.15-.86.25-.68.67-1.42a1.75,1.75,0,0,0,0-1.55h0c-.22-.57-.75-2.71-.75-2.71a.93.93,0,0,0-.87-.62,14.53,14.53,0,0,1-3.64-.24,2.86,2.86,0,0,1-1.6-1.31s-.18-.27-.4-.26-.27.27-.27.27c-.67,1.92-1.21,3.75-1.79,5.62-.52,1.67,1,1.79.66,3C62.88,31.11,62.91,32,59.66,32Zm7.87-18.1c-.46,0-.79.33-1,.86l-1.68,5s-.11.43.26.51a13.64,13.64,0,0,0,2,.28,5.32,5.32,0,0,0,.72,0h.51a1.81,1.81,0,0,0,1.41-.46s.14-.14,0-.57-.56-2.58-.87-3.94C68.85,15.56,68.47,13.84,67.53,13.86Z" transform="translate(0 0)"/><path class="cls-1" d="M154.81,30.35a5.59,5.59,0,0,0,1.35-3.28,5.63,5.63,0,0,0-.6-3.66c-1.41-2.06-4.58-2.08-6.64-3.55a2.06,2.06,0,0,1-1-1.49,1.55,1.55,0,0,1,1.51-1.5,3.15,3.15,0,0,1,2.2.36,1.26,1.26,0,0,1,.27.25c.63.81-.3,1.52-.49,2.35-.07.3.07.41.07.41a1.44,1.44,0,0,0,1,.48,1.64,1.64,0,0,0,1.35-.3,4.79,4.79,0,0,0,1.43-1.84,4.22,4.22,0,0,0,.51-2.41,1.62,1.62,0,0,0-.85-1.07,11.83,11.83,0,0,0-10.05,0,3.63,3.63,0,0,0-1.88,3.2,13,13,0,0,0,0,2.56c.29,2.1,2.09,3.26,3.88,3.89,0,0,4.19,1.25,4.4,2.55s-.89,2-2.2,1.86a5.67,5.67,0,0,1-2.67-.76,9.65,9.65,0,0,1-1.86-2.19.93.93,0,0,0-.41-.32,1.09,1.09,0,0,0-1.21.15.51.51,0,0,0-.14.27c-.13.74-.62,4.12,1.12,4.9S152.46,32.8,154.81,30.35Z" transform="translate(0 0)"/><path class="cls-1" d="M205.69,30.35A5.59,5.59,0,0,0,207,27.07a5.63,5.63,0,0,0-.6-3.66c-1.41-2.06-4.58-2.08-6.64-3.55a2.06,2.06,0,0,1-1-1.49,1.55,1.55,0,0,1,1.51-1.5,3.15,3.15,0,0,1,2.2.36,1.26,1.26,0,0,1,.27.25c.63.81-.3,1.52-.49,2.35-.07.3.07.41.07.41a1.44,1.44,0,0,0,1,.48,1.64,1.64,0,0,0,1.35-.3,4.79,4.79,0,0,0,1.43-1.84,4.22,4.22,0,0,0,.51-2.41,1.62,1.62,0,0,0-.85-1.07,11.83,11.83,0,0,0-10.05,0,3.63,3.63,0,0,0-1.88,3.2,13,13,0,0,0,0,2.56c.29,2.1,2.09,3.26,3.88,3.89,0,0,4.19,1.25,4.4,2.55s-.89,2-2.2,1.86a5.67,5.67,0,0,1-2.67-.76,9.65,9.65,0,0,1-1.86-2.19.93.93,0,0,0-.41-.32,1.09,1.09,0,0,0-1.21.15.51.51,0,0,0-.14.27c-.13.74-.62,4.12,1.12,4.9S203.34,32.8,205.69,30.35Z" transform="translate(0 0)"/><path class="cls-1" d="M187.34,14.66c-.91-1-2.24-.7-3.64-.26s-2,1.1-3,1.51c-.45.17-.53-.12-.53-.12-.1-.25,0-.59-.2-1-.34-.64-1.05-.66-1.7-.62s-3.2.49-3.2.49a2.88,2.88,0,0,0-1.43.74c-.65,1.06.87,1.7.92,2.72a64.4,64.4,0,0,1,.17,10.14c-.2.78-1,1.31-.92,2.12,0,0,0,1.35,2.92,1.38s4.37-.15,4.65-1.15a2.11,2.11,0,0,0-.57-1.61c-.89-1-.64-8.46-.64-8.46s-.26-1.68,1.09-1.83A1.69,1.69,0,0,1,183,19.9c1,3.33,1.73,7,2.66,10.36a2.46,2.46,0,0,0,2.48,1.51c2,0,3.86.07,4.51-.65a1.58,1.58,0,0,0-.56-2.27,2.39,2.39,0,0,1-.5-.83c-1.21-3.43-1.87-7.1-3-10.61a6.24,6.24,0,0,0-1.25-2.76" transform="translate(0 0)"/><path class="cls-1" d="M168.2,31.78a19.81,19.81,0,0,1-7.53-.29c-2.07-.62-3-2.5-3.31-4.43a22.49,22.49,0,0,1,0-8.15c.32-1.63.83-3.34,2.47-4a13.7,13.7,0,0,1,8.31-.58,4.38,4.38,0,0,1,1.63.71,6.36,6.36,0,0,1,2.45,3.17,21.64,21.64,0,0,1,.7,8.19S172.36,31.14,168.2,31.78Zm-3-14.81a2.3,2.3,0,0,0-2.7,2.32,40.1,40.1,0,0,0,.26,6.48,4.1,4.1,0,0,0,1.35,2.71,2.58,2.58,0,0,0,1.7.37s1.32-.21,1.65-.87a6.44,6.44,0,0,0,.49-3.39s-.15-5.44-1.19-6.72A2.67,2.67,0,0,0,165.19,17Z" transform="translate(0 0)"/><path class="cls-1" d="M98.33,31.72a37.35,37.35,0,0,1-7.93,0c-1,0-2.06-.22-2.39-.77s.4-1.78.4-1.78a1,1,0,0,0,.2-.51,100.68,100.68,0,0,0,.19-12.84l-.06-1.69c-.06-1.06-2-1.5-.73-2.62a27.49,27.49,0,0,1,5-2.68c.69-.29.92,0,.92,0,.26.2.25.72.25.72v5.93s-.06.6.32.43c.89-.39,1.88-.89,2.83-1.28a2.87,2.87,0,0,1,3.33.89c1.47,1.6,2.41,5.88,2.41,5.88.64,3,.87,6.78-1.51,9.16C100.79,31.39,98.33,31.72,98.33,31.72Zm-.77-3.22a2.26,2.26,0,0,0,.55-1.09c.39-1.54-.11-3.23-.42-4.8l-.23-1c-.31-1.1-.53-2.35-1.63-2.86a.94.94,0,0,0-.49-.07,1.3,1.3,0,0,0-1,.48s-.25.21-.32,1c0,0-.12,5.63-.05,6.68a4.37,4.37,0,0,0,.28,1.48A1.42,1.42,0,0,0,95,29a2,2,0,0,0,1,.18A2.38,2.38,0,0,0,97.57,28.5Z" transform="translate(0 0)"/><path class="cls-1" d="M116.57,24.4a1.2,1.2,0,0,1,.67.14c.84.39,1.6.86,1.6,1.81a5.28,5.28,0,0,1-2.74,4.71,11.76,11.76,0,0,1-7.2.48,5,5,0,0,1-3.5-2.74,20.67,20.67,0,0,1,.12-11,5,5,0,0,1,.71-1.58,5.7,5.7,0,0,1,3.92-1.92,12.26,12.26,0,0,1,4.8.19,4.53,4.53,0,0,1,1.45.6,5,5,0,0,1,1.15,1.12,4.53,4.53,0,0,1,.34.52,8.5,8.5,0,0,1,1,5.54,2.13,2.13,0,0,1-.14.45,1.3,1.3,0,0,1-.52.58,10.61,10.61,0,0,1-3.2,1.15s-2.67.58-3.87.77c0,0-1.12.15-1,.81.21,2,.88,2.55.88,2.55a2.09,2.09,0,0,0,1,.69,3,3,0,0,0,2.61-.57s.7-.38,1.06-2.37c0,0,.31-1.06.56-1.68A.37.37,0,0,1,116.57,24.4Zm-5.69-1.54c1.11.08,2.59-.09,3-1.11a5.11,5.11,0,0,0-.38-4.23A1.46,1.46,0,0,0,113,17a1.8,1.8,0,0,0-1.41-.09,1.32,1.32,0,0,0-.3.12,2.28,2.28,0,0,0-1,1.65,17.32,17.32,0,0,0-.16,3.38A.78.78,0,0,0,110.88,22.86Z" transform="translate(0 0)"/></svg>